<svg width="40" height="40" viewBox="0 0 40 40" fill="none" xmlns="http://www.w3.org/2000/svg">
<path fill-rule="evenodd" clip-rule="evenodd" d="M15 5.00001C9.47716 5.00001 5.00001 9.47716 5.00001 15C5.00001 20.5228 9.47716 25 15 25C20.5228 25 25 20.5228 25 15C25 9.47716 20.5228 5.00001 15 5.00001ZM0 15C0 6.71574 6.71574 0 15 0C23.2843 0 30 6.71574 30 15C30 18.2396 28.973 21.2393 27.2268 23.6913L39.2678 35.7323C40.2441 36.7086 40.2441 38.2916 39.2678 39.2678C38.2916 40.2441 36.7086 40.2441 35.7323 39.2678L23.6913 27.2268C21.2393 28.973 18.2396 30 15 30C6.71574 30 0 23.2843 0 15Z" fill="#34364A"/>
</svg>
